<svg width="401" height="401" viewBox="0 0 401 401" fill="none" xmlns="http://www.w3.org/2000/svg">
<g clip-path="url(#clip0)">
<path d="M338.547 75.755L311.38 384.522H87.249L60.082 75.755H137.927H261.224H338.547Z" fill="#0B92CC"/>
<path d="M244.388 338.547H243.866C234.984 338.025 228.715 330.71 228.715 322.351L235.507 136.882C236.029 128 243.344 121.209 251.703 121.731C260.585 122.253 266.854 129.568 266.854 137.927L260.062 323.396C259.539 331.755 252.747 338.547 244.388 338.547Z" fill="white"/>
<path d="M158.763 338.547C150.404 338.547 143.612 331.755 143.09 323.396L136.298 137.927C135.776 129.045 142.567 122.254 151.449 121.731C160.331 121.209 167.122 128 167.645 136.882L174.437 322.351C174.959 331.233 168.168 338.024 159.286 338.547H158.763Z" fill="white"/>
<path d="M375.641 60.082H338.547C338.547 60.082 338.547 60.082 338.025 60.082H276.898V26.122C276.898 11.494 265.404 0 250.776 0H148.376C133.747 0 122.254 11.494 122.254 26.122V60.081H60.082H23.51C14.628 60.081 7.83701 66.873 7.83701 75.754C7.83701 84.635 14.629 91.427 23.51 91.427H45.975L72.098 386.09C72.62 393.927 79.412 400.196 87.771 400.196H311.902C320.261 400.196 327.053 393.927 327.575 386.09L353.697 91.429H376.685C385.567 91.429 392.358 84.637 392.358 75.756C392.358 66.875 384.522 60.082 375.641 60.082ZM153.6 31.347H245.551V60.082H153.6V31.347ZM297.273 368.849H101.355L76.8 91.429H320.784L297.273 368.849Z" fill="#3A2C51"/>
</g>
<defs>
<clipPath id="clip0">
<rect width="400.196" height="400.196" fill="white"/>
</clipPath>
</defs>
</svg>
